<?xml version="1.0" standalone="no"?>
<!DOCTYPE svg PUBLIC "-//W3C//DTD SVG 20010904//EN"
 "http://www.w3.org/TR/2001/REC-SVG-20010904/DTD/svg10.dtd">
<svg version="1.0" xmlns="http://www.w3.org/2000/svg"
 width="1536.000000pt" height="1024.000000pt" viewBox="0 0 1536.000000 1024.000000"
 preserveAspectRatio="xMidYMid meet">
<metadata>
Created by potrace 1.16, written by Peter Selinger 2001-2019
</metadata>
<g transform="translate(0.000000,1024.000000) scale(0.100000,-0.100000)"
fill="#000000" stroke="none">
<path d="M2656 6494 c-68 -15 -148 -48 -181 -75 -53 -44 -105 -106 -128 -152
-54 -111 -52 -67 -52 -1002 0 -972 -4 -916 72 -1039 62 -101 157 -173 265
-200 57 -14 163 -16 909 -16 907 0 890 -1 994 52 107 55 205 189 234 318 9 42
12 264 9 910 l-3 855 -34 79 c-56 130 -171 228 -312 268 -33 9 -258 12 -874
14 -706 2 -840 1 -899 -12z m978 -394 c48 -18 113 -87 126 -135 28 -101 -11
-220 -88 -263 -154 -86 -332 14 -332 188 0 95 46 172 124 206 36 16 134 18
170 4z m94 -960 c2 -248 -1 -408 -8 -450 -22 -128 -103 -245 -197 -286 -108
-46 -223 -56 -324 -28 l-58 16 -3 130 -3 130 45 -8 c111 -20 167 -1 194 67 14
34 16 97 16 429 l0 390 168 -2 167 -3 3 -385z"/>
<path d="M10254 6131 c-23 -10 -54 -36 -70 -57 -25 -33 -29 -46 -29 -105 0
-60 3 -71 31 -106 66 -81 182 -92 252 -24 45 43 62 79 62 131 0 55 -16 90 -60
131 -56 52 -116 62 -186 30z"/>
<path d="M5978 6093 l-26 -4 -5 -572 c-3 -423 -7 -582 -16 -612 -15 -48 -57
-105 -76 -105 -7 0 -15 -5 -17 -11 -7 -21 -143 -24 -193 -5 -43 17 -103 77
-118 118 -5 15 -19 13 -131 -25 -83 -28 -126 -47 -126 -56 0 -26 62 -139 94
-172 150 -154 426 -193 642 -92 100 47 181 153 222 288 13 41 16 155 19 653
l5 602 -124 -1 c-68 -1 -135 -4 -150 -6z"/>
<path d="M7753 6094 c-10 -5 -13 -172 -13 -790 l0 -784 135 0 135 0 0 60 c0
33 4 60 10 60 6 0 10 -4 10 -9 0 -17 134 -98 185 -112 82 -23 247 -18 328 10
37 12 74 29 81 37 8 8 18 14 21 14 11 0 88 62 108 87 10 13 25 30 33 37 8 8
14 19 14 24 0 5 7 15 15 22 26 21 74 165 86 256 9 74 8 104 -5 183 -39 222
-159 374 -358 453 -43 17 -76 22 -168 22 -108 1 -119 -1 -191 -32 -43 -18 -93
-49 -113 -68 -27 -26 -38 -31 -42 -21 -3 8 -4 18 -3 23 1 5 1 127 0 270 l-1
262 -127 0 c-71 1 -134 -2 -140 -4z m679 -695 c128 -65 185 -177 176 -346 -7
-139 -58 -226 -160 -277 -82 -41 -234 -32 -294 16 -47 39 -74 66 -74 77 0 6
-4 11 -9 11 -20 0 -54 107 -59 185 -7 123 29 218 107 288 58 51 99 65 199 66
55 1 83 -4 114 -20z"/>
<path d="M9085 6092 c-3 -3 -5 -358 -5 -789 l0 -783 470 0 470 0 0 145 0 145
-320 0 -320 0 -2 643 -3 642 -142 1 c-78 1 -145 -1 -148 -4z"/>
<path d="M11972 5313 l3 -788 143 -3 142 -3 0 176 0 176 52 54 c29 30 55 55
59 55 3 0 46 -57 94 -126 48 -70 110 -156 137 -193 28 -36 53 -73 56 -81 3 -8
15 -24 26 -37 19 -22 25 -23 188 -23 92 0 168 2 168 5 0 7 -149 214 -253 350
-37 49 -72 98 -132 184 -38 55 -73 101 -77 101 -22 0 1 32 91 124 54 55 132
136 172 180 41 43 95 101 122 128 26 27 47 51 47 55 0 3 -79 4 -175 1 l-175
-3 -46 -50 c-25 -28 -84 -93 -132 -145 -48 -52 -114 -124 -147 -161 -33 -37
-63 -67 -67 -68 -4 -1 -9 196 -10 437 l-3 437 -143 3 -142 3 2 -788z"/>
<path d="M6865 5654 c-207 -52 -379 -217 -431 -414 -20 -79 -23 -225 -4 -300
61 -250 271 -421 536 -437 186 -12 327 40 454 167 82 81 131 162 156 255 18
71 18 238 0 308 -17 64 -74 183 -107 222 -72 84 -171 150 -279 185 -86 28
-242 35 -325 14z m241 -251 c73 -25 146 -103 174 -188 31 -94 26 -218 -13
-296 -33 -67 -59 -97 -116 -135 -42 -27 -50 -29 -150 -29 -122 0 -145 9 -216
80 -63 64 -88 137 -88 250 1 206 112 333 294 335 36 0 87 -7 115 -17z"/>
<path d="M11225 5660 c-77 -16 -131 -46 -197 -111 -27 -26 -48 -44 -49 -40 0
3 0 37 1 74 l1 68 -141 -3 -140 -3 0 -560 0 -560 139 -3 140 -3 3 358 3 358
28 58 c23 47 38 63 80 87 46 26 61 30 135 30 130 0 186 -36 224 -143 16 -46
18 -88 18 -399 l0 -348 145 0 145 0 0 360 c0 395 -7 465 -57 570 -30 61 -87
124 -148 162 -78 49 -222 70 -330 48z"/>
<path d="M10186 5643 c-3 -4 -6 -258 -6 -565 l0 -558 148 0 147 0 -2 562 -2
563 -140 2 c-76 1 -142 -1 -145 -4z"/>
</g>
</svg>
